<?xml version="1.0" encoding="UTF-8" standalone="no"?>
<!-- Generator: Adobe Illustrator 23.0.1, SVG Export Plug-In . SVG Version: 6.00 Build 0)  -->

<svg
   xmlns:dc="http://purl.org/dc/elements/1.1/"
   xmlns:cc="http://creativecommons.org/ns#"
   xmlns:rdf="http://www.w3.org/1999/02/22-rdf-syntax-ns#"
   xmlns:svg="http://www.w3.org/2000/svg"
   xmlns="http://www.w3.org/2000/svg"
   xmlns:sodipodi="http://sodipodi.sourceforge.net/DTD/sodipodi-0.dtd"
   xmlns:inkscape="http://www.inkscape.org/namespaces/inkscape"
   version="1.1"
   id="Ebene_1"
   x="0px"
   y="0px"
   viewBox="0 0 283.46 283.46"
   style="enable-background:new 0 0 283.46 283.46;"
   xml:space="preserve"
   sodipodi:docname="UKH_Pikto_Upload.svg"
   inkscape:version="0.92.4 (5da689c313, 2019-01-14)"><metadata
   id="metadata879"><rdf:RDF><cc:Work
       rdf:about=""><dc:format>image/svg+xml</dc:format><dc:type
         rdf:resource="http://purl.org/dc/dcmitype/StillImage" /></cc:Work></rdf:RDF></metadata><defs
   id="defs877" /><sodipodi:namedview
   pagecolor="#ffffff"
   bordercolor="#666666"
   borderopacity="1"
   objecttolerance="10"
   gridtolerance="10"
   guidetolerance="10"
   inkscape:pageopacity="0"
   inkscape:pageshadow="2"
   inkscape:window-width="1740"
   inkscape:window-height="733"
   id="namedview875"
   showgrid="false"
   inkscape:zoom="3.330276"
   inkscape:cx="126.592"
   inkscape:cy="134.15191"
   inkscape:window-x="0"
   inkscape:window-y="0"
   inkscape:window-maximized="0"
   inkscape:current-layer="g872" />
<style
   type="text/css"
   id="style859">
	.st0{fill:#004994;}
</style>
<g
   id="Hilfslinien_1_">
</g>
<g
   id="g872">
	<path
   class="st0"
   d="M221.4,142.02l-11.42-5.32c-2.1-0.98-4.58-0.99-6.8-0.04c-2.11,0.91-3.82,2.59-4.82,4.74l-17.38,37.27   l0.09,34.92l26.81-22.38l17.38-37.27c1-2.14,1.19-4.54,0.53-6.74C225.11,144.9,223.51,143.01,221.4,142.02z M191.66,195.64   l-3.64-1.7l-0.02-8.99l10.56,4.92L191.66,195.64z M218.92,150.98l-15.58,33.4l-14.21-6.63l15.58-33.4   c0.27-0.58,0.73-1.04,1.25-1.27c0.23-0.1,0.66-0.23,1.06-0.05l11.42,5.32c0.4,0.19,0.58,0.61,0.65,0.84   C219.25,149.76,219.19,150.4,218.92,150.98z"
   id="path862" />
	<path
   class="st0"
   d="M141.73,14.17c-70.45,0-127.56,57.11-127.56,127.56s57.11,127.56,127.56,127.56s127.56-57.11,127.56-127.56   C269.29,71.28,212.18,14.17,141.73,14.17z M226.27,226.27c-22.58,22.58-52.61,35.02-84.54,35.02s-61.96-12.44-84.54-35.02   c-22.58-22.58-35.02-52.61-35.02-84.54c0-31.94,12.44-61.96,35.02-84.54c22.58-22.58,52.61-35.02,84.54-35.02   s61.96,12.44,84.54,35.02c22.58,22.58,35.02,52.61,35.02,84.54C261.29,173.67,248.85,203.69,226.27,226.27z"
   id="path864" />
	
	
	<path
   class="st0"
   d="M169.86,205.76h-68.07c-4.05,0-7.34-3.29-7.34-7.34V85.04c0-4.05,3.29-7.34,7.34-7.34h79.37   c4.05,0,7.34,3.29,7.34,7.34v46.22c0,2.21,1.79,4,4,4s4-1.79,4-4V85.04c0-8.46-6.88-15.34-15.34-15.34h-79.37   c-8.46,0-15.34,6.88-15.34,15.34v113.39c0,8.46,6.88,15.34,15.34,15.34h68.07c2.21,0,4-1.79,4-4S172.06,205.76,169.86,205.76z"
   id="path870" />
<path
   id="path894"
   d="m 136.63347,101.26404 h -0.0205 l -29.38747,47.51098 0.0205,0.0123 c -0.2055,0.34499 -0.34936,0.71463 -0.34936,1.10891 0,1.81124 2.44553,3.27747 5.46649,3.27747 0.39046,0 0.76038,-0.0246 1.13028,-0.0739 v 0 l 16.00897,-2.05766 v 22.36318 c 0,4.05371 5.46648,7.33118 12.22765,7.33118 6.76117,0 12.22765,-3.27747 12.22765,-7.33118 v -22.35086 l 16.09118,2.06998 0.0205,-0.0123 c 0.3288,0.037 0.67817,0.0616 1.02753,0.0616 3.02095,0 5.46647,-1.46623 5.46647,-3.27747 0,-0.38196 -0.12331,-0.7516 -0.3288,-1.08427 l 0.0411,-0.0246 -29.36692,-47.47402 h -0.0205 c -0.76037,-1.26909 -2.75379,-2.193189 -5.13768,-2.193189 -2.36332,0.0123 -4.33618,0.899459 -5.11711,2.143909 z"
   class="st0"
   inkscape:connector-curvature="0"
   style="fill:#004994;fill-opacity:1;stroke-width:1.59126127" /></g>
</svg>