<?xml version="1.0" encoding="utf-8"?>
<!-- Generator: Adobe Illustrator 23.0.1, SVG Export Plug-In . SVG Version: 6.00 Build 0)  -->
<svg version="1.1" id="Ebene_1" xmlns="http://www.w3.org/2000/svg" xmlns:xlink="http://www.w3.org/1999/xlink" x="0px" y="0px"
	 viewBox="0 0 283.46 283.46" style="enable-background:new 0 0 283.46 283.46;" xml:space="preserve">
<style type="text/css">
	.st0{fill:#004994;}
</style>
<g id="Hilfslinien_1_">
</g>
<g>
	<path class="st0" d="M203.83,115.73l-56.66-47.26c-3.51-2.9-7.35-2.87-10.78,0.07l-56.87,47.29c-2.11,1.81-3.26,4.44-3.27,7.13
		h-0.01v74.81c0,5.18,4.21,9.39,9.39,9.39h112.21c5.18,0,9.39-4.21,9.39-9.39v-74.81h-0.01
		C207.21,120.21,206.01,117.54,203.83,115.73z M141.56,74.65c0.1-0.09,0.19-0.16,0.26-0.21c0.07,0.05,0.15,0.11,0.24,0.19
		l53.15,44.32H88.28L141.56,74.65z M84.24,192.15v-60.24l37.01,33.17L84.24,192.15z M88.22,199.15l53.11-38.85
		c0.26-0.19,0.42-0.25,0.42-0.26c0.04,0.01,0.22,0.07,0.5,0.28l52.99,38.83H88.22z M199.22,192.14l-36.92-27.06l36.92-33.16V192.14z
		"/>
	<path class="st0" d="M141.73,14.17c-70.45,0-127.56,57.11-127.56,127.56s57.11,127.56,127.56,127.56s127.56-57.11,127.56-127.56
		S212.18,14.17,141.73,14.17z M226.28,226.27c-22.58,22.58-52.61,35.02-84.54,35.02s-61.96-12.44-84.54-35.02
		s-35.02-52.61-35.02-84.54c0-31.94,12.44-61.96,35.02-84.54s52.61-35.02,84.54-35.02s61.96,12.44,84.54,35.02
		s35.02,52.61,35.02,84.54C261.29,173.67,248.86,203.69,226.28,226.27z"/>
</g>
</svg>
