<?xml version="1.0" encoding="utf-8"?>
<!-- Generator: Adobe Illustrator 23.0.1, SVG Export Plug-In . SVG Version: 6.00 Build 0)  -->
<svg version="1.1" id="Ebene_1" xmlns="http://www.w3.org/2000/svg" xmlns:xlink="http://www.w3.org/1999/xlink" x="0px" y="0px"
	 viewBox="0 0 283.46 283.46" style="enable-background:new 0 0 283.46 283.46;" xml:space="preserve">
<style type="text/css">
	.st0{fill:#004994;}
</style>
<g id="Hilfslinien_1_">
</g>
<g>
	<path class="st0" d="M221.4,142.02l-11.42-5.32c-2.1-0.98-4.58-0.99-6.8-0.04c-2.11,0.91-3.82,2.59-4.82,4.74l-17.38,37.27
		l0.09,34.92l26.81-22.38l17.38-37.27c1-2.14,1.19-4.54,0.53-6.74C225.11,144.9,223.51,143.01,221.4,142.02z M191.66,195.64
		l-3.64-1.7l-0.02-8.99l10.56,4.92L191.66,195.64z M218.92,150.98l-15.58,33.4l-14.21-6.63l15.58-33.4
		c0.27-0.58,0.73-1.04,1.25-1.27c0.23-0.1,0.66-0.23,1.06-0.05l11.42,5.32c0.4,0.19,0.58,0.61,0.65,0.84
		C219.25,149.76,219.19,150.4,218.92,150.98z"/>
	<path class="st0" d="M141.73,14.17c-70.45,0-127.56,57.11-127.56,127.56s57.11,127.56,127.56,127.56s127.56-57.11,127.56-127.56
		C269.29,71.28,212.18,14.17,141.73,14.17z M226.27,226.27c-22.58,22.58-52.61,35.02-84.54,35.02s-61.96-12.44-84.54-35.02
		c-22.58-22.58-35.02-52.61-35.02-84.54c0-31.94,12.44-61.96,35.02-84.54c22.58-22.58,52.61-35.02,84.54-35.02
		s61.96,12.44,84.54,35.02c22.58,22.58,35.02,52.61,35.02,84.54C261.29,173.67,248.85,203.69,226.27,226.27z"/>
	<path class="st0" d="M155.75,140.62c3.67-2.86,6.13-5.21,7.52-7.18c2.42-3.33,3.64-7.42,3.64-12.15c0-7.7-2.81-13.64-8.35-17.64
		c-5.24-3.78-11.83-5.7-19.6-5.7c-6.01,0-11.19,1.38-15.41,4.09c-6.76,4.3-10.41,11.57-10.83,21.6l-0.13,3.13h3.13h13.73h3v-3
		c0-2.07,0.6-4.04,1.84-6.01c0.61-0.97,1.81-2.26,5.26-2.26c2.68,0,4.45,0.57,5.26,1.71c1.05,1.47,1.56,3.06,1.56,4.85
		c0,1.46-0.43,2.76-1.32,3.99l-0.02,0.03l-0.02,0.03c-0.51,0.74-1.21,1.45-2.08,2.1l-0.02,0.02l-0.02,0.02l-3.46,2.71
		c-3.87,3.02-6.25,5.73-7.28,8.3c-0.96,2.39-1.53,6.35-1.73,12.11l-0.11,3.11h3.11h12.88h2.96l0.04-2.96
		c0.04-2.92,0.31-4.23,0.48-4.74c0.42-1.32,1.28-2.47,2.63-3.52L155.75,140.62z"/>
	<path class="st0" d="M140.18,161.12c-6.43,0-11.67,5.23-11.67,11.67c0,3.12,1.21,6.04,3.42,8.25c2.2,2.2,5.13,3.42,8.25,3.42
		c6.43,0,11.67-5.23,11.67-11.67C151.84,166.36,146.61,161.12,140.18,161.12z"/>
	<path class="st0" d="M169.86,205.76h-68.07c-4.05,0-7.34-3.29-7.34-7.34V85.04c0-4.05,3.29-7.34,7.34-7.34h79.37
		c4.05,0,7.34,3.29,7.34,7.34v46.22c0,2.21,1.79,4,4,4s4-1.79,4-4V85.04c0-8.46-6.88-15.34-15.34-15.34h-79.37
		c-8.46,0-15.34,6.88-15.34,15.34v113.39c0,8.46,6.88,15.34,15.34,15.34h68.07c2.21,0,4-1.79,4-4S172.06,205.76,169.86,205.76z"/>
</g>
</svg>
