<?xml version="1.0" encoding="utf-8"?>
<!-- Generator: Adobe Illustrator 23.0.1, SVG Export Plug-In . SVG Version: 6.00 Build 0)  -->
<svg version="1.1" id="Ebene_1" xmlns="http://www.w3.org/2000/svg" xmlns:xlink="http://www.w3.org/1999/xlink" x="0px" y="0px"
	 viewBox="0 0 283.46 283.46" style="enable-background:new 0 0 283.46 283.46;" xml:space="preserve">
<style type="text/css">
	.st0{fill:#004994;}
</style>
<g id="Hilfslinien_1_">
</g>
<g>
	<g>
		<path class="st0" d="M141.73,14.17c-70.45,0-127.56,57.11-127.56,127.56s57.11,127.56,127.56,127.56s127.56-57.11,127.56-127.56
			C269.28,71.28,212.17,14.17,141.73,14.17z M226.27,226.27c-22.58,22.58-52.61,35.02-84.54,35.02c-31.94,0-61.96-12.44-84.54-35.02
			c-22.58-22.58-35.02-52.61-35.02-84.54s12.44-61.96,35.02-84.54s52.61-35.02,84.54-35.02c31.94,0,61.96,12.44,84.54,35.02
			c22.58,22.58,35.02,52.61,35.02,84.54S248.85,203.69,226.27,226.27z"/>
	</g>
	<g>
		<path class="st0" d="M209.76,205.76H77.7V73.7c0-2.21-1.79-4-4-4s-4,1.79-4,4v136.06c0,2.21,1.79,4,4,4h136.06c2.21,0,4-1.79,4-4
			S211.97,205.76,209.76,205.76z"/>
	</g>
	<g>
		<rect x="90.99" y="124.4" class="st0" width="27.21" height="72.57"/>
	</g>
	<g>
		<rect x="132.67" y="138" class="st0" width="27.21" height="58.96"/>
	</g>
</g>
<g>
	<rect x="176.03" y="97.08" class="st0" width="27.21" height="99.78"/>
</g>
</svg>
