<?xml version="1.0" encoding="UTF-8" standalone="no"?>
<!-- Generator: Adobe Illustrator 22.0.0, SVG Export Plug-In . SVG Version: 6.00 Build 0)  -->

<svg
   xmlns:dc="http://purl.org/dc/elements/1.1/"
   xmlns:cc="http://creativecommons.org/ns#"
   xmlns:rdf="http://www.w3.org/1999/02/22-rdf-syntax-ns#"
   xmlns:svg="http://www.w3.org/2000/svg"
   xmlns="http://www.w3.org/2000/svg"
   xmlns:sodipodi="http://sodipodi.sourceforge.net/DTD/sodipodi-0.dtd"
   xmlns:inkscape="http://www.inkscape.org/namespaces/inkscape"
   version="1.1"
   x="0px"
   y="0px"
   viewBox="0 0 283.5 283.5"
   style="enable-background:new 0 0 283.5 283.5;"
   xml:space="preserve"
   id="svg835"
   sodipodi:docname="Auto.svg"
   inkscape:version="0.92.4 (5da689c313, 2019-01-14)"><metadata
   id="metadata841"><rdf:RDF><cc:Work
       rdf:about=""><dc:format>image/svg+xml</dc:format><dc:type
         rdf:resource="http://purl.org/dc/dcmitype/StillImage" /><dc:title /></cc:Work></rdf:RDF></metadata><defs
   id="defs839" /><sodipodi:namedview
   pagecolor="#ffffff"
   bordercolor="#666666"
   borderopacity="1"
   objecttolerance="10"
   gridtolerance="10"
   guidetolerance="10"
   inkscape:pageopacity="0"
   inkscape:pageshadow="2"
   inkscape:window-width="1920"
   inkscape:window-height="1017"
   id="namedview837"
   showgrid="false"
   inkscape:zoom="2.9911817"
   inkscape:cx="103.61473"
   inkscape:cy="149.99661"
   inkscape:window-x="-8"
   inkscape:window-y="-8"
   inkscape:window-maximized="1"
   inkscape:current-layer="Piktogramme" />
<style
   type="text/css"
   id="style829">
	.st0{fill:#51AE31;}
</style>
<g
   id="Hilfslinien_1_">
</g>
<g
   id="Piktogramme">
	<path
   class="st0"
   d="M141.7,22.2c31.9,0,62,12.4,84.5,35c22.6,22.6,35,52.6,35,84.5c0,31.9-12.4,62-35,84.5   c-22.6,22.6-52.6,35-84.5,35c-31.9,0-62-12.4-84.5-35c-22.6-22.6-35-52.6-35-84.5s12.4-62,35-84.5C79.8,34.6,109.8,22.2,141.7,22.2    M141.7,14.2c-70.4,0-127.6,57.1-127.6,127.6c0,70.4,57.1,127.6,127.6,127.6s127.6-57.1,127.6-127.6   C269.3,71.3,212.2,14.2,141.7,14.2L141.7,14.2z M220.3,126.5h-10.7c-2,0-3.8,0.9-5,2.3L193,95.5c-1.4-4.3-5.7-7.1-10-7.1h-82.8   c-5,0-8.6,2.9-10,7.1l-11.6,33.2c-1.2-1.4-2.9-2.2-4.8-2.2H63.1c-3.5,0-6.4,2.9-6.4,6.4v4.3c0,3.6,2.9,6.4,6.4,6.4h10.7   c0.5,0,1-0.1,1.5-0.2v51.9c0,4.3,2.9,7.1,7.1,7.1h7.1c4.3,0,7.1-2.9,7.1-7.1v-7.1h89.9v7.1c0,4.3,2.8,7.1,7.1,7.1h7.1   c4.3,0,7.1-2.9,7.1-7.1v-52c0.5,0.1,1.1,0.2,1.6,0.2h10.7c3.6,0,6.4-2.9,6.4-6.4v-4.3C226.7,129.3,223.9,126.5,220.3,126.5z    M97.6,96.3h88l11.6,34.9H86L97.6,96.3z M111.7,157.6c0,1.4-1.2,2.6-2.6,2.6H88.7c-1.4,0-2.6-1.2-2.6-2.6v-9c0-1.4,1.2-2.6,2.6-2.6   h20.4c1.4,0,2.6,1.2,2.6,2.6V157.6z M197.4,157.6c0,1.4-1.2,2.6-2.5,2.6h-20.4c-1.4,0-2.6-1.2-2.6-2.6v-9c0-1.4,1.2-2.6,2.6-2.6   h20.4c1.4,0,2.5,1.2,2.5,2.6V157.6z M136,71.6c0.2,0.9,0.6,2.3,0.7,2.6h-2.5c0.3-0.9,0.4-1.5,0.7-2.4c0.2-0.9,0.5-2.2,0.6-2.5   L136,71.6z M166.6,62.1h-49.9c-3.5,0-6.2,2.8-6.2,6.2v9.4c0,3.5,2.8,6.2,6.2,6.2h49.9c3.5,0,6.2-2.8,6.2-6.2v-9.4   C172.9,64.9,170.1,62.1,166.6,62.1z M127,68.7h-3.1v10.8h-2.7V68.7H118v-2.2h9.4L127,68.7z M138.2,79.5l-0.9-3.1h-3.8l-0.9,3.1   h-2.7l4.3-13h2.8l4.1,13H138.2z M152.3,79.5l-2.3-4.6l-2.3,4.6h-3.3l4.1-7l-3.5-6h3.2l1.8,3.5l1.8-3.5h3.1l-3.4,5.9l4,7.1H152.3z    M163,79.5h-2.7v-13h2.7V79.5z"
   id="path832"
   style="stroke:none;stroke-opacity:1;fill:#004994;fill-opacity:1" />
</g>
<path
   style="fill:#ffffff;fill-opacity:1;stroke-width:0.23639713"
   d="m 114.9176,83.749265 c -0.61033,-0.16431 -1.30179,-0.444352 -1.53658,-0.622314 -1.22006,-0.924773 -1.83972,-1.640992 -2.34565,-2.711184 -0.54393,-1.15055 -0.55871,-1.348596 -0.55591,-7.44651 0.003,-5.555105 0.0517,-6.371607 0.43394,-7.210113 0.65901,-1.44567 1.66316,-2.492989 2.97666,-3.104634 l 1.19165,-0.554903 26.62678,-0.0023 26.62678,-0.0023 1.26376,0.660195 c 1.44438,0.754551 2.6733,2.213134 3.05312,3.623699 0.16401,0.609084 0.23049,3.200067 0.18373,7.160356 l -0.0733,6.205902 -0.71426,1.15454 c -0.93087,1.504683 -2.39019,2.598933 -3.89696,2.922076 -1.84461,0.395599 -51.74749,0.327643 -53.23379,-0.07249 z m 8.7926,-9.83442 v -5.437134 h 1.65478 c 1.41716,0 1.65525,-0.05941 1.65801,-0.413695 0.002,-0.227532 0.0674,-0.653047 0.14577,-0.945588 l 0.14254,-0.531894 h -4.63731 -4.63732 v 0.945589 0.945588 h 1.65478 1.65478 v 5.437134 5.437135 h 1.18199 1.18198 z m 9.25699,3.841454 0.45244,-1.477482 h 1.99235 1.99234 l 0.43412,1.477482 0.43411,1.477482 1.32109,0.07011 1.32108,0.07011 -1.63371,-5.152652 c -0.89855,-2.833958 -1.79997,-5.71618 -2.00317,-6.404936 l -0.36946,-1.252285 -1.31964,0.0703 -1.31964,0.0703 -1.2664,3.782354 c -0.69652,2.080295 -1.6279,4.931198 -2.06974,6.335341 l -0.80334,2.552987 1.19256,-0.07082 1.19256,-0.07082 z M 148.705,77.106207 c 0.61358,-1.235175 1.19866,-2.245773 1.30019,-2.245773 0.10153,0 0.68661,1.010598 1.30018,2.245773 l 1.11559,2.245773 h 1.36503 c 0.75077,0 1.36503,-0.0403 1.36503,-0.08955 0,-0.04926 -0.85103,-1.591564 -1.89118,-3.427354 -1.04014,-1.835789 -1.89117,-3.387907 -1.89117,-3.44915 0,-0.09853 1.60949,-2.903482 2.88686,-5.031097 l 0.46126,-0.768291 h -1.38057 -1.38057 l -0.94358,1.771335 c -1.0716,2.011645 -1.0255,2.020026 -2.26629,-0.412051 l -0.69348,-1.359284 h -1.43426 -1.43426 l 0.46806,0.768291 c 1.60037,2.626903 2.88006,4.911404 2.88006,5.141461 0,0.146954 -0.72978,1.510251 -1.62173,3.029548 -2.50657,4.269538 -2.41977,3.826146 -0.749,3.826146 h 1.42825 z m 14.24713,-4.13695 v -6.382723 h -1.30019 -1.30018 v 6.382723 6.382723 h 1.30018 1.30019 z"
   id="path1434"
   inkscape:connector-curvature="0" /><path
   style="fill:#ffffff;fill-opacity:1;stroke-width:0.23639713"
   d="m 134.20038,73.855746 c 0.0791,-0.292541 0.37514,-1.466316 0.65783,-2.608389 0.28268,-1.142073 0.58823,-1.993102 0.679,-1.891177 0.14857,0.16684 1.18044,4.42435 1.17647,4.854162 -9e-4,0.09751 -0.59913,0.177298 -1.32939,0.177298 -1.26196,0 -1.32063,-0.02636 -1.18391,-0.531894 z"
   id="path1436"
   inkscape:connector-curvature="0" /><path
   style="fill:#ffffff;fill-opacity:1;stroke-width:0.23639713"
   d="M 134.8776,260.90526 C 113.23249,259.61231 92.548882,252.61096 74.763789,240.5569 64.217288,233.40887 53.890208,223.51408 45.915682,212.91636 22.313043,181.54971 15.933048,139.33649 29.129049,101.84763 41.158418,67.673086 69.139003,40.108912 103.52146,28.562341 c 13.33341,-4.477728 26.02683,-6.392489 40.5189,-6.112145 11.0407,0.213578 19.88936,1.483162 30.11101,4.320252 34.86961,9.678311 64.49426,36.191109 78.14984,69.940776 12.73968,31.486076 11.52964,67.043446 -3.31504,97.411566 -8.94756,18.30426 -23.15581,34.67791 -40.12989,46.24585 -15.43966,10.52222 -33.52377,17.42457 -51.57768,19.68619 -7.19609,0.90145 -15.97035,1.23456 -22.401,0.85043 z M 93.027723,201.73408 c 0.768121,-0.3772 1.660544,-1.05554 2.071827,-1.57483 1.380706,-1.74328 1.507829,-2.31646 1.61407,-7.27755 l 0.09745,-4.55064 h 44.75043 44.75043 l 0.0809,4.56814 c 0.0804,4.54216 0.0849,4.57605 0.7925,5.95888 0.85246,1.66592 2.21832,2.7897 4.03118,3.31671 1.03688,0.30143 2.27231,0.35863 6.42612,0.29754 4.78055,-0.0703 5.22564,-0.11397 6.32444,-0.62021 1.50074,-0.69143 2.36271,-1.5116 3.15431,-3.00139 l 0.62804,-1.18198 0.0631,-27.06748 0.0631,-27.06747 h 7.0288 7.0288 l 1.25847,-0.69712 c 0.69216,-0.38342 1.57112,-1.09187 1.95323,-1.57433 1.18939,-1.50172 1.39829,-2.48417 1.39574,-6.56406 -0.002,-3.38312 -0.0492,-3.79428 -0.5605,-4.89227 -0.307,-0.65931 -0.97083,-1.53999 -1.47517,-1.95707 -1.58523,-1.31096 -2.52449,-1.45394 -9.55082,-1.45394 -6.9528,0 -7.8924,0.13779 -9.44442,1.38503 l -0.8741,0.70245 -5.6287,-16.23226 c -3.09578,-8.92774 -5.97817,-16.976903 -6.40531,-17.887032 -1.29335,-2.755826 -3.52008,-4.668808 -6.48258,-5.5692 -1.50974,-0.458854 -2.29854,-0.46591 -45.15186,-0.40387 l -43.615272,0.06314 -1.256257,0.514947 c -0.690944,0.283222 -1.812471,0.934891 -2.492285,1.448157 -2.387304,1.802433 -2.473322,1.999442 -8.890433,20.362218 -3.244471,9.28416 -5.954125,17.02385 -6.021456,17.19931 -0.09153,0.23851 -0.359544,0.14725 -1.062054,-0.36165 -1.607499,-1.16446 -2.362222,-1.25589 -9.708958,-1.17616 -7.500102,0.0814 -7.467552,0.0751 -9.298618,1.81304 -1.773175,1.68305 -1.930246,2.23398 -1.930246,6.77038 0,4.01302 9.45e-4,4.02055 0.701243,5.28478 0.385685,0.69633 1.071187,1.57098 1.523341,1.94368 1.570384,1.29445 2.297189,1.40003 9.637384,1.40003 h 6.695207 v 26.55177 c 0,22.73334 0.05023,26.72091 0.349269,27.72789 0.395561,1.332 1.699237,2.98806 2.80672,3.56537 1.751041,0.91279 2.509935,1.00352 7.954676,0.95098 5.300913,-0.0512 5.323508,-0.0536 6.668269,-0.71393 z M 136.94844,83.920926 c -2.73442,-0.14637 -22.28575,-0.188212 -21.62075,-0.04627 0.38478,0.08213 5.6994,0.141798 11.81027,0.132598 6.11087,-0.0092 10.52558,-0.04805 9.81048,-0.08633 z m 26.52045,-0.01799 c -2.25115,-0.03889 -5.86802,-0.03882 -8.03751,1.56e-4 -2.16948,0.03897 -0.32764,0.07079 4.09299,0.07071 4.42062,-8.5e-5 6.19566,-0.03197 3.94452,-0.07086 z m 5.09274,-0.202238 c -0.0786,-0.07855 -0.28244,-0.08695 -0.45309,-0.01865 -0.18858,0.07546 -0.13257,0.131479 0.14282,0.142822 0.2492,0.01026 0.38883,-0.04561 0.31027,-0.124161 z m -54.09062,-0.179752 c -0.0542,-0.0474 -0.36444,-0.212833 -0.68949,-0.367635 -0.55725,-0.265392 -0.56479,-0.26047 -0.13211,0.08618 0.37658,0.301704 1.14602,0.565292 0.8216,0.281459 z m 55.74289,-0.601992 c 0.83481,-0.604733 1.47643,-1.332306 2.0511,-2.325893 0.38566,-0.666786 -0.0742,-0.230355 -0.68312,0.648277 -0.35972,0.519076 -1.13708,1.263727 -1.72746,1.65478 -0.59038,0.391055 -0.96477,0.711007 -0.83196,0.711007 0.1328,0 0.66895,-0.309676 1.19144,-0.688171 z m -57.67152,-0.67111 c -0.34012,-0.357551 -0.89064,-1.128797 -1.22337,-1.71388 -0.66781,-1.174319 -0.83134,-1.123865 -0.22959,0.07084 0.3606,0.715938 1.70545,2.293133 1.95531,2.293133 0.0638,0 -0.16223,-0.292542 -0.50235,-0.650093 z m -1.89369,-12.529049 c -0.0402,-1.787753 -0.073,-0.325046 -0.073,3.250461 0,3.575507 0.0328,5.038214 0.073,3.250461 0.0401,-1.787754 0.0401,-4.713168 0,-6.500922 z m 62.1724,0.118199 c -0.0404,-1.722744 -0.0734,-0.313226 -0.0734,3.132262 0,3.445488 0.0331,4.855006 0.0734,3.132262 0.0404,-1.722744 0.0404,-4.54178 0,-6.264524 z m -26.88956,7.38741 c 0.13917,-0.260037 0.19985,-0.472794 0.13484,-0.472794 -0.065,0 -0.23207,0.212757 -0.37123,0.472794 -0.13917,0.260037 -0.19985,0.472795 -0.13484,0.472795 0.065,0 0.23207,-0.212758 0.37123,-0.472795 z m 4.72795,-1.418382 c -0.26533,-0.520074 -0.56692,-0.945589 -0.67022,-0.945589 -0.10329,0 -0.36536,0.372325 -0.58236,0.82739 -0.49391,1.035739 -0.31658,1.095481 0.21283,0.07171 l 0.39078,-0.755683 0.44833,0.873882 c 0.24658,0.480635 0.50114,0.873882 0.56568,0.873882 0.0645,0 -0.0997,-0.425515 -0.36504,-0.945588 z m 2.12757,-1.181986 c -0.13917,-0.260037 -0.30622,-0.472794 -0.37123,-0.472794 -0.065,0 -0.004,0.212757 0.13483,0.472794 0.13917,0.260037 0.30622,0.472794 0.37123,0.472794 0.065,0 0.004,-0.212757 -0.13483,-0.472794 z m -5.20074,-0.236397 c 0.13917,-0.260037 0.19985,-0.472795 0.13484,-0.472795 -0.065,0 -0.23207,0.212758 -0.37123,0.472795 -0.13917,0.260037 -0.19985,0.472794 -0.13484,0.472794 0.065,0 0.23207,-0.212757 0.37123,-0.472794 z m -12.76544,-0.172308 c -0.19503,-0.07424 -0.43275,-0.252004 -0.52828,-0.395031 -0.10712,-0.160405 -0.17506,-0.10153 -0.17729,0.153644 -0.002,0.277937 0.17092,0.40757 0.52827,0.395031 0.35541,-0.01248 0.41424,-0.06345 0.1773,-0.153644 z m 1.86375,-0.359586 c -0.0194,-0.376857 -0.0581,-0.415546 -0.13273,-0.132735 -0.0579,0.219535 -0.33812,0.444401 -0.62267,0.499699 -0.42591,0.08277 -0.40244,0.106235 0.13273,0.132737 0.53339,0.02641 0.64517,-0.06329 0.62267,-0.499701 z m -2.17506,-0.930814 c -0.0755,-0.188581 -0.13148,-0.132566 -0.14282,0.142824 -0.0103,0.249201 0.0456,0.388824 0.12416,0.310272 0.0785,-0.07855 0.087,-0.282448 0.0186,-0.453096 z m 17.32202,0.02585 c -0.14461,-0.270197 -0.19524,-0.669118 -0.11252,-0.886489 0.11882,-0.312201 0.0892,-0.334498 -0.14086,-0.10614 -0.22385,0.222177 -0.22827,0.427349 -0.0191,0.886489 0.1497,0.328573 0.3314,0.597406 0.40377,0.597406 0.0724,0 0.0133,-0.221069 -0.13133,-0.491266 z m -3.29968,-0.423092 c 0,-0.227513 -0.16543,-0.620155 -0.36764,-0.872537 -0.34996,-0.436817 -0.35462,-0.432146 -0.0969,0.09718 0.14888,0.305834 0.21786,0.75809 0.15328,1.005014 -0.0646,0.246924 -0.0209,0.389339 0.097,0.316477 0.11789,-0.07286 0.21435,-0.318624 0.21435,-0.546137 z m -0.94559,-1.922408 c -0.13916,-0.260036 -0.30622,-0.472794 -0.37123,-0.472794 -0.065,0 -0.004,0.212758 0.13484,0.472794 0.13916,0.260037 0.30622,0.472795 0.37123,0.472795 0.065,0 0.004,-0.212758 -0.13484,-0.472795 z m -12.03836,-0.579936 c 0.12018,0.07428 0.21851,-0.02452 0.21851,-0.219552 0,-0.195027 -0.10638,-0.42034 -0.2364,-0.500696 -0.13002,-0.08036 -0.23785,-0.06004 -0.23963,0.04515 -0.002,0.105188 -0.0397,0.404008 -0.0843,0.664045 -0.0446,0.260036 -0.0351,0.338518 0.0211,0.174404 0.0562,-0.164116 0.20049,-0.237622 0.32067,-0.163348 z m 14.7196,-0.235414 c 0.0877,-0.228504 0.0179,-0.298964 -0.20975,-0.211627 -0.18766,0.07201 -0.28234,0.226163 -0.21041,0.342556 0.18119,0.293158 0.26778,0.266173 0.42016,-0.130929 z m -3.62683,-0.839429 c -0.13916,-0.260037 -0.30622,-0.472795 -0.37123,-0.472795 -0.065,0 -0.004,0.212758 0.13484,0.472795 0.13916,0.260036 0.30622,0.472794 0.37123,0.472794 0.065,0 0.004,-0.212758 -0.13484,-0.472794 z m -19.4644,-1.477483 c -0.0656,-0.162523 -0.11923,-0.02955 -0.11923,0.295497 0,0.325046 0.0537,0.458019 0.11923,0.295496 0.0656,-0.162523 0.0656,-0.42847 0,-0.590993 z m 18.75521,0.295497 c -0.13916,-0.260037 -0.30622,-0.472794 -0.37123,-0.472794 -0.065,0 -0.004,0.212757 0.13484,0.472794 0.13916,0.260037 0.30622,0.472794 0.37123,0.472794 0.065,0 0.004,-0.212757 -0.13484,-0.472794 z m 8.2739,0 c 0.13917,-0.260037 0.19985,-0.472794 0.13484,-0.472794 -0.065,0 -0.23207,0.212757 -0.37123,0.472794 -0.13917,0.260037 -0.19985,0.472794 -0.13484,0.472794 0.065,0 0.23207,-0.212757 0.37123,-0.472794 z m -17.12907,-1.166258 c -0.0857,-0.138669 -0.26012,-0.252125 -0.38759,-0.252125 -0.12747,0 -0.0946,0.148838 0.073,0.330753 0.33939,0.368264 0.5571,0.313841 0.31454,-0.07863 z m -24.68267,-2.763343 c 0.25751,-0.276013 0.88895,-0.691578 1.40322,-0.923479 0.51426,-0.231901 0.89106,-0.4656 0.83732,-0.519336 -0.17317,-0.173173 -1.90046,0.817317 -2.42357,1.389758 -0.61427,0.672204 -1.50128,2.120049 -1.49857,2.446076 10e-4,0.130019 0.27454,-0.242307 0.60768,-0.82739 0.33315,-0.585082 0.81641,-1.289614 1.07392,-1.565629 z m 59.62982,1.155258 c -0.64667,-1.050818 -2.63648,-2.676086 -3.24727,-2.652343 -0.14783,0.0057 0.12485,0.218332 0.60596,0.472414 1.09474,0.578149 2.41398,1.920311 2.79742,2.846018 0.16062,0.387767 0.34714,0.649927 0.41449,0.582575 0.0674,-0.06735 -0.18942,-0.629249 -0.5706,-1.248664 z"
   id="path1438"
   inkscape:connector-curvature="0" /><path
   style="fill:#ffffff;fill-opacity:1;stroke-width:0.04178951"
   d="m 149.91108,69.900969 c -0.0632,-0.138782 -0.0628,-0.140211 0.0353,-0.114558 0.0461,0.01205 0.11191,-0.0014 0.14626,-0.02992 0.0795,-0.066 0.0791,-0.02792 -10e-4,0.127629 -0.0781,0.151108 -0.11742,0.154781 -0.18027,0.01685 z"
   id="path1440"
   inkscape:connector-curvature="0" /><path
   style="fill:#ffffff;fill-opacity:1;stroke-width:0.04178951"
   d="m 116.00102,83.881395 c -0.45326,-0.05801 -0.30278,-0.09046 0.28371,-0.06117 0.32177,0.01606 1.168,0.04276 1.88052,0.05932 l 1.29547,0.03011 -1.6089,0.0014 c -0.88489,7.45e-4 -1.71775,-0.01258 -1.8508,-0.02961 z"
   id="path1442"
   inkscape:connector-curvature="0" /></svg>